# File created by Blade
# Date/Time:  Wed Apr 08 17:24:36 2015
# Frame Rate: 120.000 fps
#------------------------------------------------------
:FULLY-SPECIFIED
:DEGREES
896
root 11.408856 38.612607 3.959012 180.351469 -38.256372 -133.592113
Spine -27.433089 9.340063 14.933446
Head 1.711465 0.498745 18.245537
LeftShoulder -5.478242 21.258114 20.087963
LeftArm 15.495881 23.300089 -75.116659
LeftForeArm 14.290788 -0.000000 34.935384
LeftHand -14.694658 -0.000000 -10.445143
LeftHandThumb1 -26.253704 0.000000 33.147579
RightShoulder -38.860372 -48.814376 25.680466
RightArm 53.016650 -9.069271 56.576001
RightForeArm 52.057058 -0.000000 26.751634
RightHand -1.106371 -0.000000 16.594094
RightHandThumb1 -24.326973 -0.000000 -32.862282
LeftUpLeg -43.096538 30.844847 13.865675
LeftLeg 20.164030 -0.000000 -0.000000
LeftFoot -10.813292 17.228538 -4.863427
LeftToeBase 2.855461 -0.000000 -0.000000
RightUpLeg -115.148638 -26.862084 17.205840
RightLeg 147.592365 -0.000000 -0.000000
RightFoot 8.121901 7.721390 19.412595
RightToeBase -6.522293 -0.000000 0.000000
897
root 11.390537 38.608308 3.951079 180.443010 -38.214049 -133.706564
Spine -27.443070 9.370081 14.914177
Head 1.801685 0.383294 18.318009
LeftShoulder -5.530590 21.339933 20.075330
LeftArm 15.250428 23.136297 -74.885034
LeftForeArm 14.330095 -0.000000 34.340515
LeftHand -14.705049 0.000000 -10.525221
LeftHandThumb1 -26.253704 0.000000 33.147579
RightShoulder -38.912783 -48.735956 25.810331
RightArm 53.048688 -8.935176 56.765937
RightForeArm 51.844534 -0.000000 26.639571
RightHand -1.039297 0.000000 16.549399
RightHandThumb1 -24.326973 -0.000000 -32.862282
LeftUpLeg -42.841266 30.421618 14.106903
LeftLeg 20.074202 -0.000000 -0.000000
LeftFoot -10.777106 17.690720 -4.849003
LeftToeBase 2.723975 -0.000000 -0.000000
RightUpLeg -115.216390 -26.724802 17.300811
RightLeg 147.499821 -0.000000 -0.000000
RightFoot 7.956006 7.674012 19.322449
RightToeBase -6.426782 -0.000000 0.000000
898
root 11.371697 38.606920 3.942987 180.537434 -38.186481 -133.818002
Spine -27.461315 9.363851 14.898610
Head 1.888727 0.280685 18.425880
LeftShoulder -5.582047 21.444233 20.068253
LeftArm 15.062737 23.015431 -74.608411
LeftForeArm 14.273799 -0.000000 33.622047
LeftHand -14.631373 0.000000 -10.691988
LeftHandThumb1 -26.253704 0.000000 33.147579
RightShoulder -38.958016 -48.683443 25.962406
RightArm 53.113454 -8.805053 56.959080
RightForeArm 51.655091 -0.000000 26.518566
RightHand -1.068590 0.000000 16.584828
RightHandThumb1 -24.326973 -0.000000 -32.862282
LeftUpLeg -42.643710 30.097100 14.256256
LeftLeg 19.977453 -0.000000 -0.000000
LeftFoot -10.717268 18.056503 -4.789951
LeftToeBase 2.593870 -0.000000 -0.000000
RightUpLeg -115.284128 -26.588741 17.437225
RightLeg 147.404016 -0.000000 -0.000000
RightFoot 7.653195 7.630098 19.261668
RightToeBase -6.347629 -0.000000 0.000000
899
root 11.351075 38.607577 3.937378 180.670496 -38.156473 -133.939855
Spine -27.524554 9.360677 14.892719
Head 2.043476 0.212402 18.484445
LeftShoulder -5.610068 21.558303 20.046154
LeftArm 14.865180 22.847409 -74.330371
LeftForeArm 14.422675 -0.000000 32.827546
LeftHand -14.673784 -0.000000 -10.807254
LeftHandThumb1 -26.253704 0.000000 33.147579
RightShoulder -38.942170 -48.651178 26.019782
RightArm 53.154593 -8.641952 57.343731
RightForeArm 51.341947 -0.000000 26.324327
RightHand -1.082932 -0.000000 16.681382
RightHandThumb1 -24.326973 -0.000000 -32.862282
LeftUpLeg -42.539102 29.926645 14.264584
LeftLeg 19.871496 -0.000000 -0.000000
LeftFoot -10.617452 18.269694 -4.593984
LeftToeBase 2.516932 -0.000000 -0.000000
RightUpLeg -115.379681 -26.420602 17.616490
RightLeg 147.295284 -0.000000 -0.000000
RightFoot 7.202450 7.562610 19.281946
RightToeBase -6.034215 -0.000000 0.000000
900
root 11.334309 38.610879 3.934081 180.801466 -38.162449 -134.023237
Spine -27.603429 9.342462 14.913018
Head 2.169283 0.117751 18.525783
LeftShoulder -5.620483 21.636146 20.025521
LeftArm 14.686871 22.763033 -73.988965
LeftForeArm 14.568051 -0.000000 31.964070
LeftHand -14.548805 0.000000 -11.073414
LeftHandThumb1 -26.253704 0.000000 33.147579
RightShoulder -38.843836 -48.562509 25.958754
RightArm 53.124227 -8.522589 57.780108
RightForeArm 51.099028 0.000000 26.107820
RightHand -1.129119 -0.000000 16.863279
RightHandThumb1 -24.326973 -0.000000 -32.862282
LeftUpLeg -42.521890 29.798200 14.232641
LeftLeg 19.785850 -0.000000 -0.000000
LeftFoot -10.465121 18.431728 -4.383680
LeftToeBase 2.395750 -0.000000 -0.000000
RightUpLeg -115.519379 -26.270787 17.877774
RightLeg 147.201336 -0.000000 -0.000000
RightFoot 6.664367 7.483287 19.231271
RightToeBase -5.555306 -0.000000 0.000000
901
root 11.319574 38.614959 3.932964 180.944520 -38.192744 -134.074432
Spine -27.713986 9.300548 14.971787
Head 2.285395 0.073658 18.548781
LeftShoulder -5.605946 21.643407 20.028329
LeftArm 14.422230 22.595642 -73.722978
LeftForeArm 14.802732 -0.000000 31.021391
LeftHand -14.394783 -0.000000 -11.411247
LeftHandThumb1 -26.253704 0.000000 33.147579
RightShoulder -38.801175 -48.531068 25.941047
RightArm 53.145663 -8.495044 58.012261
RightForeArm 50.981487 -0.000000 26.012197
RightHand -1.217460 -0.000000 16.912707
RightHandThumb1 -24.326973 -0.000000 -32.862282
LeftUpLeg -42.592741 29.717340 14.154132
LeftLeg 19.713096 -0.000000 -0.000000
LeftFoot -10.296462 18.531021 -4.141395
LeftToeBase 2.275757 -0.000000 -0.000000
RightUpLeg -115.682040 -26.117123 18.184623
RightLeg 147.112730 -0.000000 -0.000000
RightFoot 6.076236 7.428411 19.222648
RightToeBase -5.346710 -0.000000 0.000000
902
root 11.306381 38.618591 3.934464 181.130350 -38.190158 -134.150092
Spine -27.838981 9.310664 14.998258
Head 2.385152 0.033991 18.548283
LeftShoulder -5.597995 21.672381 20.049116
LeftArm 14.243894 22.370295 -73.458834
LeftForeArm 15.196582 -0.000000 29.962802
LeftHand -14.142576 -0.000000 -11.783540
LeftHandThumb1 -26.253704 0.000000 33.147579
RightShoulder -38.760456 -48.509092 25.917387
RightArm 53.159810 -8.508626 58.194100
RightForeArm 50.876856 -0.000000 25.947504
RightHand -1.146321 -0.000000 16.796190
RightHandThumb1 -24.326973 -0.000000 -32.862282
LeftUpLeg -42.674768 29.652994 14.060211
LeftLeg 19.629924 -0.000000 -0.000000
LeftFoot -10.118326 18.646157 -3.882495
LeftToeBase 2.111332 -0.000000 -0.000000
RightUpLeg -115.856098 -25.895506 18.460527
RightLeg 147.021763 -0.000000 -0.000000
RightFoot 5.507927 7.408446 19.302956
RightToeBase -5.308614 -0.000000 0.000000
903
root 11.293456 38.621386 3.936907 181.358524 -38.183994 -134.245648
Spine -27.983473 9.337363 15.015147
Head 2.450911 0.010383 18.524899
LeftShoulder -5.356058 21.554100 20.171522
LeftArm 13.710760 22.024606 -73.372279
LeftForeArm 15.542888 -0.000000 28.972868
LeftHand -14.061373 -0.000000 -11.890302
LeftHandThumb1 -26.253704 0.000000 33.147579
RightShoulder -38.748371 -48.502303 25.891562
RightArm 53.218448 -8.557179 58.320563
RightForeArm 50.822222 -0.000000 25.862226
RightHand -1.098898 -0.000000 16.713746
RightHandThumb1 -24.326973 -0.000000 -32.862282
LeftUpLeg -42.762163 29.562974 13.961047
LeftLeg 19.530231 -0.000000 -0.000000
LeftFoot -9.984493 18.785260 -3.728977
LeftToeBase 2.035587 -0.000000 -0.000000
RightUpLeg -116.042761 -25.658722 18.667691
RightLeg 146.946369 -0.000000 -0.000000
RightFoot 5.035121 7.525204 19.469324
RightToeBase -5.290562 -0.000000 0.000000
904
root 11.280985 38.619857 3.936884 181.488459 -38.191826 -134.340438
Spine -28.011968 9.347952 15.030930
Head 2.476873 -0.014292 18.495015
LeftShoulder -5.366345 21.552045 20.220501
LeftArm 13.623296 21.782268 -73.069134
LeftForeArm 15.905562 0.000000 27.784364
LeftHand -14.059665 -0.000000 -12.109437
LeftHandThumb1 -26.253704 0.000000 33.147579
RightShoulder -38.761370 -48.479943 25.896626
RightArm 53.316353 -8.618460 58.350945
RightForeArm 50.774911 0.000000 25.745887
RightHand -1.049057 0.000000 16.678478
RightHandThumb1 -24.326973 -0.000000 -32.862282
LeftUpLeg -42.753127 29.447354 13.910577
LeftLeg 19.451291 -0.000000 -0.000000
LeftFoot -9.906874 18.924645 -3.608861
LeftToeBase 1.958892 -0.000000 -0.000000
RightUpLeg -116.123648 -25.475875 18.792995
RightLeg 146.892605 -0.000000 -0.000000
RightFoot 4.684569 7.737411 19.642655
RightToeBase -5.355780 -0.000000 0.000000
905
root 11.268025 38.617600 3.939319 181.672133 -38.210371 -134.464265
Spine -28.082857 9.374616 15.009745
Head 2.494070 -0.038338 18.446739
LeftShoulder -5.355229 21.562512 20.254500
LeftArm 13.521031 21.333183 -72.791346
LeftForeArm 16.375880 -0.000000 26.606623
LeftHand -14.094454 -0.000000 -12.415614
LeftHandThumb1 -26.253704 0.000000 33.147579
RightShoulder -38.793916 -48.439075 25.912391
RightArm 53.398510 -8.681054 58.343994
RightForeArm 50.717272 -0.000000 25.638032
RightHand -0.960400 0.000000 16.703755
RightHandThumb1 -24.326973 -0.000000 -32.862282
LeftUpLeg -42.805178 29.364222 13.785499
LeftLeg 19.380800 -0.000000 -0.000000
LeftFoot -9.861581 19.008626 -3.520085
LeftToeBase 1.982689 -0.000000 -0.000000
RightUpLeg -116.233283 -25.297790 18.875671
RightLeg 146.849139 -0.000000 -0.000000
RightFoot 4.433626 8.010522 19.707392
RightToeBase -5.571007 -0.000000 0.000000
